<svg width="178" height="169" viewBox="0 0 178 169" fill="none" xmlns="http://www.w3.org/2000/svg">
<path d="M47.3771 66.5548C42.9245 75.5421 38.7016 84.713 34.0362 93.567C29.6129 101.962 24.5141 109.921 20.4583 118.567C16.724 126.532 11.3671 133.272 7.71723 141.298C6.00143 145.207 4.47859 149.221 3.15566 153.319C1.83833 157.689 0.784054 162.154 0 166.683L0.0732464 166.706C2.82847 158.046 6.50767 149.794 11.0302 142.132C13.0772 138.292 14.9907 134.386 16.8817 130.447C18.9812 126.339 21.3464 122.41 23.9583 118.692C28.748 111.017 32.888 102.854 36.3241 94.3106C40.2881 85.189 44.0219 76.0152 47.5559 66.6736L47.3771 66.5548Z" fill="#FFF8F8"/>
<path d="M84.0579 45.9369C75.5653 57.6242 68.4074 70.4622 62.7512 84.151C60.8918 88.6255 58.7348 92.9356 56.2985 97.0447C59.6122 87.1712 61.9388 76.9135 63.2355 66.4611L63.0519 66.4043C59.3228 79.6562 54.8974 92.4641 50.2858 105.35C47.5555 111.734 44.3935 117.871 40.8274 123.709C37.6209 129.748 34.4235 135.717 31.7362 142.071C31.6081 142.336 31.5681 142.644 31.6233 142.939C31.6786 143.234 31.8255 143.497 32.0377 143.681C32.2499 143.865 32.5135 143.958 32.7812 143.944C33.0489 143.929 33.3032 143.808 33.4984 143.601C37.8909 138.656 41.6218 133.02 44.5743 126.869C46.2064 123.43 47.6488 119.882 48.8932 116.244C51.0855 112.759 53.4061 109.361 55.4226 105.769C59.0095 99.3815 62.4366 92.6909 65.622 86.041C68.7105 79.5942 70.8088 72.6166 73.849 66.1353C77.0447 59.3225 80.6997 52.7036 84.3272 46.1729L84.0579 45.9369Z" fill="#FFF8F8"/>
<path d="M73.1364 122.328C69.4973 127.644 65.716 132.823 62.0127 138.081C58.5193 141.872 55.9937 146.648 54.6992 151.911L54.928 152.105C59.4624 150.834 63.0524 144.447 65.5191 140.341C68.7687 134.801 71.6337 128.987 74.0886 122.951C74.152 122.81 74.1651 122.647 74.1251 122.495C74.0852 122.344 73.9952 122.215 73.8737 122.135C73.7521 122.055 73.6081 122.031 73.471 122.067C73.334 122.103 73.2143 122.196 73.1364 122.328Z" fill="#FFF8F8"/>
<path d="M109.473 39.4195C105.897 44.8678 103.548 51.2501 100.468 57.0547C97.2414 63.1389 94.6692 69.4084 91.7703 75.6763C88.9697 81.7276 86.4134 87.8472 83.8519 94.0251C81.3718 100.006 78.6608 105.892 76.6211 112.085L76.8645 112.201C80.2572 106.594 82.9828 100.519 85.9847 94.6426C89.0959 88.5472 92.053 82.4237 94.9152 76.1746C97.702 70.0899 100.585 64.2504 103.065 57.9786C105.806 52.0962 108.275 46.0587 110.463 39.8902C110.669 39.1839 109.814 38.9004 109.473 39.4195Z" fill="#FFF8F8"/>
<path d="M120.707 64.5992C113.493 80.0068 107.514 96.1071 102.841 112.709C99.7968 121.304 95.3671 129.335 91.9043 137.733C90.1295 142.039 88.4 146.309 86.2642 150.412C83.9961 154.095 81.952 157.946 80.1459 161.94C79.2411 164.376 82.4627 165.362 83.6398 163.597C85.8796 159.593 87.8543 155.409 89.5478 151.079C91.4514 147.115 93.6243 143.332 95.5369 139.378C98.9993 131.547 101.763 123.35 103.788 114.905C106.067 106.73 108.954 98.7063 111.498 90.6279C114.23 81.8131 117.353 73.158 120.855 64.6952L120.707 64.5992Z" fill="#FFF8F8"/>
<path d="M139.114 74.577C136.809 82.5265 135.083 90.7154 132.95 98.7274C130.767 106.933 128.63 115.175 126.707 123.463C124.84 139.134 120.571 154.322 114.088 168.351C113.893 168.652 113.609 168.865 113.287 168.952C112.965 169.039 112.626 168.994 112.331 168.826C112.035 168.658 111.803 168.377 111.675 168.033C111.547 167.69 111.532 167.306 111.632 166.951C116.055 151.977 120.804 137.163 124.28 121.856C126.074 113.958 128.135 106.158 130.465 98.454C132.934 90.2898 136.141 82.5149 138.987 74.5281L139.114 74.577Z" fill="#FFF8F8"/>
<path d="M177.082 21.4459C176.546 27.0278 175.177 32.4682 173.034 37.5388C170.709 42.037 168.077 46.3258 165.163 50.367C162.553 54.655 159.503 58.5817 156.075 62.0658C152.34 65.4816 148.426 68.6408 144.353 71.5261L144.269 71.6494L144.276 71.8046L144.37 71.9183L144.507 71.9367C153.982 68.5793 162.259 61.9117 168.137 52.9021C170.884 48.3859 172.944 43.3873 174.233 38.1107C175.927 32.7111 177.111 27.1259 177.766 21.4474C177.817 20.9515 177.138 20.9627 177.082 21.4459Z" fill="#FFF8F8"/>
<path d="M72.3765 18.7325C66.2605 16.2048 59.8893 14.5406 53.4089 13.7782C50.2299 12.9679 46.9931 12.4773 43.7369 12.3119C42.5428 12.2896 41.356 12.5246 40.2404 13.0041C37.9478 14.0889 36.8422 16.0176 34.0665 16.1145C31.444 15.7315 28.7789 16.2049 26.3889 17.4785C24.3864 18.9738 22.8583 21.1466 22.0256 23.683C20.4856 28.1754 21.0402 35.472 26.1153 36.4312L26.2093 36.1806C25.1257 34.9183 24.3443 33.3675 23.9381 31.6732C23.5318 29.9789 23.5139 28.1964 23.8861 26.4923C24.2583 24.7881 25.0085 23.2179 26.0664 21.9284C27.1244 20.6388 28.4556 19.6721 29.9358 19.1184C32.1014 18.5367 34.4116 19.0166 36.5604 18.2459C38.8547 17.1911 41.2713 16.5109 43.7369 16.226C48.9756 16.2598 54.1911 17.0123 59.2678 18.4669C64.524 19.669 72.3765 19.9065 72.3765 18.7325Z" fill="#FFF8F8"/>
<path d="M80.1881 20.4907C77.9599 22.3664 75.4251 23.7302 72.7285 24.5042C70.1198 25.0945 67.4693 25.4201 64.8088 25.477C59.9775 25.5808 54.9889 25.7863 50.1706 25.5895C43.7274 25.3268 33.5215 26.6166 30.6662 34.2559C30.5921 34.4541 30.8333 34.6301 30.9798 34.5273C34.4625 32.9277 38.1932 32.1233 41.9548 32.1609C46.5677 31.4057 50.7807 29.6961 55.3155 28.6849C59.8021 27.685 64.3232 26.8507 68.8538 26.1455C70.7974 25.843 72.7195 25.4635 74.6489 25.067C76.926 24.5987 79.2876 24.6792 81.513 24.0258C83.9375 23.3142 82.3321 18.9919 80.1881 20.4907Z" fill="#FFF8F8"/>
<path d="M72.6376 32.4403C67.17 39.0785 60.3202 44.0818 52.7053 46.9994C48.9355 48.7493 44.8787 49.5797 40.8026 49.4359C36.7266 49.2921 32.7239 48.1773 29.059 46.1652L28.8643 46.3843C31.7987 49.9473 35.6322 52.4146 39.8496 53.4548C44.067 54.495 48.4664 54.0584 52.4567 52.2034C56.9305 50.829 61.0907 48.3923 64.6572 45.0574C68.2236 41.7224 71.1136 37.5666 73.1327 32.8697C73.296 32.5294 72.8806 32.1208 72.6376 32.4403Z" fill="#FFF8F8"/>
<path d="M18.0776 40.3918C14.2515 26.6402 7.95225 13.7146 3.44927 0.163167L3.33871 0.0270807L3.17559 0.0093585L3.04392 0.11913L3.01152 0.29986C4.516 7.55997 6.45427 14.6976 8.81312 21.6641C9.8864 24.7508 11.0506 27.7992 12.2575 30.8253C13.6759 34.321 15.461 37.6132 17.5748 40.6318C17.7471 40.8892 18.178 40.7563 18.0776 40.3918Z" fill="#FFF8F8"/>
<path d="M30.5013 69.1361C27.1398 63.4048 24.0917 57.4487 21.3738 51.3007L21.2695 51.3491C23.4187 57.1537 25.458 63.1672 27.991 68.7696C29.2646 71.3008 30.7059 73.7205 32.3027 76.008C33.3721 78.1713 34.5575 80.2595 35.8522 82.2609C35.9516 82.3707 36.0746 82.4496 36.2093 82.4898C36.3439 82.5299 36.4856 82.53 36.6203 82.49C36.755 82.4501 36.8781 82.3714 36.9776 82.2617C37.0771 82.152 37.1496 82.0151 37.1879 81.8644C38.0026 77.0409 32.7512 72.6023 30.5013 69.1361Z" fill="#FFF8F8"/>
<path d="M125.349 64.5524C124.426 67.7191 124.669 73.1946 127.99 74.483C128.782 74.9953 129.668 75.2961 130.579 75.3621C131.491 75.4281 132.404 75.2575 133.247 74.8636C134.091 74.4696 134.843 73.8628 135.445 73.09C136.047 72.3172 136.483 71.399 136.72 70.4064C138.692 64.8839 140.155 59.1479 141.085 53.2889C141.085 51.652 139.468 49.8333 136.72 49.1062C133.971 48.3791 131.385 48.0146 129.768 52.3796C128.152 56.7445 126.319 61.2248 125.349 64.5524Z" fill="#FFF8F8"/>
<path d="M86.7401 45.7253C85.5147 48.7596 85.2243 54.2321 88.4006 55.9214C89.1378 56.528 89.989 56.936 90.8886 57.1138C91.7881 57.2916 92.712 57.2345 93.5888 56.9469C94.4657 56.6593 95.272 56.1489 95.9457 55.455C96.6194 54.7612 97.1423 53.9025 97.4742 52.9452C99.9715 47.6975 101.983 42.175 103.476 36.4646C103.635 34.8374 102.205 32.8292 99.5436 31.7701C96.8822 30.7109 94.347 30.0289 92.3159 34.169C90.2848 38.309 88.0275 42.5372 86.7401 45.7253Z" fill="#FFF8F8"/>
<path d="M50.76 64.5025C49.7393 66.7395 49.5536 70.8039 52.3112 72.1049C55.7451 73.7263 58.0787 73.4568 60.0999 70.0264C61.9944 66.4896 63.4506 62.6782 64.428 58.6979C64.4707 57.7207 64.2178 56.756 63.7106 55.9611C63.2034 55.1663 62.4718 54.5883 61.6351 54.3214C59.3282 53.493 57.1338 52.9501 55.4306 55.997C53.7274 59.044 51.8325 62.153 50.76 64.5025Z" fill="#FFF8F8"/>
<path d="M112.42 40.316C111.226 43.393 111.133 48.8757 114.611 50.452C115.414 51.0424 116.323 51.4274 117.272 51.5797C118.222 51.7321 119.19 51.6482 120.108 51.3338C121.026 51.0195 121.871 50.4825 122.584 49.7606C123.297 49.0387 123.861 48.1496 124.235 47.1559C126.698 41.8465 128.638 36.2503 130.021 30.4669C130.127 28.8348 128.51 26.8799 125.61 25.9105C122.71 24.941 119.96 24.3536 117.945 28.5648C115.93 32.7761 113.675 37.0824 112.42 40.316Z" fill="#FFF8F8"/>
</svg>
